<svg xmlns="http://www.w3.org/2000/svg" width="24" height="24" viewBox="0 0 24 24">
    <g fill="#000" fill-rule="nonzero" stroke="#000" stroke-width=".526">
        <path d="M19.943 17.953l-1.374-2.385a7.314 7.314 0 0 1-.97-3.646V9.833C17.6 6.618 15.088 4 12 4S6.4 6.618 6.4 9.833v2.09a7.314 7.314 0 0 1-.969 3.645l-1.374 2.385a.432.432 0 0 0-.005.419c.07.13.204.211.348.211h15.2c.144 0 .277-.08.348-.211a.432.432 0 0 0-.005-.42zM5.107 17.75l1.01-1.754A8.166 8.166 0 0 0 7.2 11.922V9.833c0-2.757 2.153-5 4.8-5s4.8 2.243 4.8 5v2.09c0 1.434.374 2.843 1.082 4.073l1.011 1.754H5.107z"/>
        <path d="M12 2c-1.103 0-2 .598-2 1.333v1.334c0 .184.224.333.5.333s.5-.15.5-.333V3.333c0-.368.448-.666 1-.666s1 .298 1 .666v1.334c0 .184.224.333.5.333s.5-.15.5-.333V3.333C14 2.598 13.103 2 12 2zM13.73 18.205a.394.394 0 0 0-.548-.149.427.427 0 0 0-.143.571c.104.184.16.405.16.622 0 .69-.538 1.25-1.199 1.25s-1.2-.56-1.2-1.25c0-.217.057-.438.161-.622a.428.428 0 0 0-.143-.57.393.393 0 0 0-.548.148c-.176.315-.27.676-.27 1.045 0 1.149.896 2.083 2 2.083 1.102 0 1.998-.934 2-2.083 0-.369-.094-.73-.27-1.045z"/>
    </g>
</svg>
